<?xml version="1.0" encoding="UTF-8"?>
<svg xmlns="http://www.w3.org/2000/svg" xmlns:xlink="http://www.w3.org/1999/xlink" width="24px" height="24px" viewBox="0 0 24 24" version="1.1">
<g id="surface1">
<path style="fill:none;stroke-width:2;stroke-linecap:round;stroke-linejoin:round;stroke:rgb(100%,100%,100%);stroke-opacity:1;stroke-miterlimit:4;" d="M 2 22 L 16 8 M 3.46875 12.53125 L 5 11 L 6.53125 12.53125 C 7.890625 13.894531 7.890625 16.105469 6.53125 17.46875 L 5 19 L 3.46875 17.46875 C 2.109375 16.105469 2.109375 13.894531 3.46875 12.53125 Z M 7.46875 8.53125 L 9 7 L 10.53125 8.53125 C 11.890625 9.894531 11.890625 12.105469 10.53125 13.46875 L 9 15 L 7.46875 13.46875 C 6.109375 12.105469 6.109375 9.894531 7.46875 8.53125 Z M 11.46875 4.53125 L 13 3 L 14.53125 4.53125 C 15.890625 5.894531 15.890625 8.105469 14.53125 9.46875 L 13 11 L 11.46875 9.46875 C 10.109375 8.105469 10.109375 5.894531 11.46875 4.53125 Z M 20 2 L 22 2 L 22 4 C 22 6.210938 20.210938 8 18 8 L 16 8 L 16 6 C 16 3.789062 17.789062 2 20 2 Z M 20 2 "/>
<path style="fill:none;stroke-width:2;stroke-linecap:round;stroke-linejoin:round;stroke:rgb(100%,100%,100%);stroke-opacity:1;stroke-miterlimit:4;" d="M 11.46875 17.46875 L 13 19 L 11.46875 20.53125 C 10.105469 21.890625 7.894531 21.890625 6.53125 20.53125 L 5 19 L 6.53125 17.46875 C 7.894531 16.109375 10.105469 16.109375 11.46875 17.46875 Z M 15.46875 13.46875 L 17 15 L 15.46875 16.53125 C 14.105469 17.890625 11.894531 17.890625 10.53125 16.53125 L 9 15 L 10.53125 13.46875 C 11.894531 12.109375 14.105469 12.109375 15.46875 13.46875 Z M 19.46875 9.46875 L 21 11 L 19.46875 12.53125 C 18.105469 13.890625 15.894531 13.890625 14.53125 12.53125 L 13 11 L 14.53125 9.46875 C 15.894531 8.109375 18.105469 8.109375 19.46875 9.46875 Z M 19.46875 9.46875 "/>
</g>
</svg>
