<?xml version="1.0" encoding="UTF-8"?>
<svg xmlns="http://www.w3.org/2000/svg" xmlns:xlink="http://www.w3.org/1999/xlink" width="24px" height="24px" viewBox="0 0 24 24" version="1.1">
<g id="surface1">
<path style="fill:none;stroke-width:2;stroke-linecap:round;stroke-linejoin:round;stroke:rgb(100%,100%,100%);stroke-opacity:1;stroke-miterlimit:4;" d="M 11 21.730469 C 11.617188 22.085938 12.382812 22.085938 13 21.730469 L 20 17.730469 C 20.617188 17.375 21 16.714844 21 16 L 21 8 C 21 7.285156 20.617188 6.625 20 6.269531 L 13 2.269531 C 12.382812 1.914062 11.617188 1.914062 11 2.269531 L 4 6.269531 C 3.382812 6.625 3 7.285156 3 8 L 3 16 C 3 16.714844 3.382812 17.375 4 17.730469 Z M 12 22 L 12 12 "/>
<path style="fill:none;stroke-width:2;stroke-linecap:round;stroke-linejoin:round;stroke:rgb(100%,100%,100%);stroke-opacity:1;stroke-miterlimit:4;" d="M 3.289062 7 L 12 12 L 20.710938 7 "/>
<path style="fill:none;stroke-width:2;stroke-linecap:round;stroke-linejoin:round;stroke:rgb(100%,100%,100%);stroke-opacity:1;stroke-miterlimit:4;" d="M 7.5 4.269531 L 16.5 9.421875 "/>
</g>
</svg>
