<?xml version="1.0" encoding="UTF-8"?>
<svg xmlns="http://www.w3.org/2000/svg" xmlns:xlink="http://www.w3.org/1999/xlink" width="24px" height="24px" viewBox="0 0 24 24" version="1.1">
<g id="surface1">
<path style="fill:none;stroke-width:2;stroke-linecap:round;stroke-linejoin:round;stroke:rgb(35.294119%,42.352942%,35.294119%);stroke-opacity:1;stroke-miterlimit:4;" d="M 20 13 C 20 18 16.5 20.5 12.339844 21.949219 C 12.121094 22.023438 11.886719 22.019531 11.671875 21.941406 C 7.5 20.5 4 18 4 13 L 4 6 C 4 5.449219 4.449219 5 5 5 C 7 5 9.5 3.800781 11.238281 2.28125 C 11.675781 1.90625 12.324219 1.90625 12.761719 2.28125 C 14.511719 3.808594 17 5 19 5 C 19.550781 5 20 5.449219 20 6 Z M 20 13 "/>
<path style="fill:none;stroke-width:2;stroke-linecap:round;stroke-linejoin:round;stroke:rgb(35.294119%,42.352942%,35.294119%);stroke-opacity:1;stroke-miterlimit:4;" d="M 9 12 L 11 14 L 15 10 "/>
</g>
</svg>
