<?xml version="1.0" encoding="UTF-8"?>
<svg xmlns="http://www.w3.org/2000/svg" xmlns:xlink="http://www.w3.org/1999/xlink" width="24px" height="24px" viewBox="0 0 24 24" version="1.1">
<g id="surface1">
<path style="fill:none;stroke-width:2;stroke-linecap:round;stroke-linejoin:round;stroke:rgb(35.294119%,42.352942%,35.294119%);stroke-opacity:1;stroke-miterlimit:4;" d="M 22 16.921875 L 22 19.921875 C 22.003906 20.484375 21.765625 21.019531 21.351562 21.402344 C 20.9375 21.78125 20.382812 21.96875 19.820312 21.921875 C 16.742188 21.585938 13.785156 20.535156 11.191406 18.851562 C 8.773438 17.316406 6.726562 15.265625 5.191406 12.851562 C 3.5 10.242188 2.449219 7.269531 2.121094 4.179688 C 2.070312 3.621094 2.257812 3.066406 2.636719 2.652344 C 3.011719 2.238281 3.546875 2 4.109375 2 L 7.109375 2 C 8.113281 1.988281 8.96875 2.726562 9.109375 3.71875 C 9.238281 4.679688 9.472656 5.621094 9.808594 6.53125 C 10.085938 7.261719 9.910156 8.085938 9.359375 8.640625 L 8.089844 9.910156 C 9.511719 12.414062 11.585938 14.488281 14.089844 15.910156 L 15.359375 14.640625 C 15.914062 14.089844 16.738281 13.914062 17.46875 14.191406 C 18.378906 14.527344 19.320312 14.761719 20.28125 14.890625 C 21.285156 15.03125 22.023438 15.90625 22 16.921875 Z M 22 16.921875 "/>
</g>
</svg>
